<?xml version="1.0" encoding="UTF-8"?>
<!DOCTYPE svg PUBLIC "-//W3C//DTD SVG 1.1//EN" "http://www.w3.org/Graphics/SVG/1.1/DTD/svg11.dtd">
<!-- Creator: CorelDRAW X8 -->
<svg xmlns="http://www.w3.org/2000/svg" xml:space="preserve" width="3.71166cm" height="0.6621cm" version="1.1" shape-rendering="geometricPrecision" text-rendering="geometricPrecision" image-rendering="optimizeQuality" fill-rule="evenodd" clip-rule="evenodd"
viewBox="0 0 1309 233"
 xmlns:xlink="http://www.w3.org/1999/xlink">
 <g id="Layer_x0020_1">
  <metadata id="CorelCorpID_0Corel-Layer"/>
  <path fill="#F58634" fill-rule="nonzero" d="M0 10c0,-1 1,-2 2,-3 1,0 3,-1 5,-1 2,-1 5,-1 7,-2 2,0 5,0 8,0 4,0 6,0 9,0 2,0 4,0 7,0 3,0 4,0 5,0l16 0c3,0 8,0 14,0 5,-1 10,-1 12,-1 47,0 80,8 100,24l5 5c2,1 4,3 6,6 2,2 4,6 7,11 3,5 6,11 8,16 2,6 4,13 6,22 2,9 2,17 2,26 0,15 -1,28 -5,40 -4,13 -10,23 -16,32 -7,9 -15,17 -24,24 -9,6 -19,11 -30,14 -10,4 -21,5 -32,5l-5 0c-4,0 -10,0 -19,0 -8,0 -14,0 -18,0 -25,0 -47,0 -67,1 -2,-5 -3,-9 -3,-13l0 -206zm86 168c5,0 11,-1 15,-2 5,-2 9,-3 12,-6 3,-2 6,-4 9,-8 2,-3 4,-6 5,-10 2,-3 3,-7 4,-12 1,-4 1,-9 1,-13 1,-4 1,-8 1,-13l0 -9c0,-18 -4,-31 -11,-40 -7,-8 -19,-13 -37,-13 0,1 -1,2 -2,4 -1,2 -2,3 -3,4l0 7c0,2 0,6 0,12 -1,65 1,98 6,99z"/>
  <path id="1" fill="#F58634" fill-rule="nonzero" d="M237 36c0,-6 0,-9 1,-10 1,-2 2,-2 4,-2l3 0c2,0 3,0 4,0l7 0c10,0 25,0 45,-1 20,0 35,-1 44,-1l39 0c3,1 4,2 4,4l0 49c0,1 0,1 -1,2 0,0 0,0 0,0 0,1 -1,1 -2,1 0,1 -1,1 -1,2l-68 0 0 18 7 0c5,0 14,-1 25,-1 12,0 21,-1 27,-1 3,0 5,1 6,2 1,1 1,3 1,5 0,0 0,1 0,2 0,1 0,2 0,2l0 6c0,0 0,1 0,2 0,2 0,3 0,4l0 4c0,2 0,4 0,6 0,2 0,4 0,6l0 3c0,1 0,2 -1,3 0,0 -1,0 -1,0l0 0c-4,0 -10,0 -19,1 -9,0 -16,0 -21,0l-23 0 0 19c1,0 2,0 3,0 2,0 3,0 4,0 4,0 11,0 19,0 9,0 15,0 19,0l18 0c5,0 9,0 10,1 0,1 1,1 1,2l0 47c0,2 0,3 -1,4 -1,1 -2,2 -4,2l-145 0 -4 -4 0 -177z"/>
  <path id="2" fill="#F58634" fill-rule="nonzero" d="M506 96c1,-4 3,-11 6,-21 3,-11 5,-19 5,-25l0 -10c0,-1 0,-1 1,-3 0,-1 0,-2 0,-2 0,-1 0,-2 1,-3 0,-1 0,-2 0,-2 0,-1 1,-1 1,-2 1,-1 1,-2 2,-2 0,0 1,-1 1,-1 1,-1 2,-1 3,-1 1,0 2,0 3,0l66 0c1,0 1,0 2,1 1,0 2,1 3,2 0,0 1,0 1,1l-49 175c-1,5 -3,8 -4,11 -2,3 -4,4 -6,4l-99 0c-2,-6 -4,-14 -6,-22 -2,-9 -4,-17 -6,-25 -2,-9 -4,-16 -5,-23l-36 -120c0,-2 2,-4 5,-4l0 -1c6,0 15,0 27,0 11,-1 20,-1 25,-1l24 0c1,0 1,0 2,1 0,0 0,0 0,1 1,1 1,2 2,2l21 121 13 -35 -3 -16z"/>
  <path id="3" fill="#F58634" fill-rule="nonzero" d="M820 146c-1,14 -5,27 -11,39 -6,11 -14,20 -23,27 -10,7 -21,12 -33,16 -12,4 -25,5 -39,5 -13,0 -25,-1 -36,-4 -11,-3 -20,-7 -28,-11 -7,-5 -14,-11 -19,-18 -6,-7 -11,-14 -14,-21 -3,-7 -6,-15 -8,-24 -2,-8 -4,-16 -5,-24 0,-7 -1,-15 -1,-23l0 -13c1,-14 5,-27 10,-38 6,-11 13,-20 21,-27 8,-7 17,-13 28,-18 10,-4 20,-8 30,-9 10,-2 19,-3 29,-3 16,0 30,2 42,6 12,3 21,9 29,15 8,7 14,15 18,24 4,9 7,18 8,29l0 14c0,3 -11,5 -32,5 -5,0 -12,0 -21,0 -9,-1 -15,-1 -18,-1 0,0 -1,0 -2,0 -1,1 -2,1 -2,1 -3,0 -5,-1 -6,-3 -1,-3 -2,-5 -3,-8 0,-3 -1,-6 -1,-9 -1,-3 -2,-6 -4,-8 -2,-2 -5,-3 -8,-3 -4,0 -7,1 -10,2 -2,1 -4,3 -6,5 -1,3 -3,5 -4,8 -1,2 -2,6 -2,10 0,4 -1,7 -1,10 0,3 0,6 0,11 0,4 0,8 0,10 0,1 -1,3 -1,6 0,4 0,6 0,8 0,24 6,37 19,37 4,0 7,-1 9,-4 2,-2 4,-5 4,-8 1,-3 2,-6 3,-10 1,-3 2,-6 4,-7l79 0c3,0 5,2 5,6z"/>
  <path id="4" fill="#F58634" fill-rule="nonzero" d="M827 119l0 -4c2,-15 4,-26 5,-33 4,-14 11,-26 21,-36l3 -4c5,-5 12,-10 21,-14l6 0c9,-4 25,-7 47,-11 5,0 11,1 17,2 6,0 13,2 20,4 7,2 14,5 21,9 7,4 12,9 17,14l0 4c16,20 24,43 24,68 0,27 -7,50 -20,68l-5 7c-5,6 -10,10 -17,14 -7,4 -14,7 -21,9 -8,2 -15,4 -22,5 -7,1 -13,1 -20,1 -10,0 -20,-1 -29,-3 -9,-3 -17,-7 -25,-12 -8,-5 -15,-11 -21,-18 -6,-8 -11,-17 -15,-27 -4,-10 -6,-22 -7,-35l0 -8zm80 1c0,34 7,51 20,51 4,0 7,-1 9,-2 3,-1 5,-3 7,-6 2,-3 3,-6 4,-9 1,-3 2,-6 2,-11 1,-4 1,-8 1,-11 0,-4 0,-8 0,-12l0 -6c0,-5 0,-9 -1,-14 0,-5 -1,-9 -3,-14 -1,-5 -3,-9 -6,-12 -3,-2 -7,-4 -11,-4 -14,0 -22,15 -22,43l0 7z"/>
  <path id="5" fill="#F58634" fill-rule="nonzero" d="M1156 24c1,0 2,0 3,0 2,-1 3,-1 3,-1l17 89 23 -89 103 0c2,0 4,6 4,17l0 172c-1,1 -1,3 -2,4 0,1 -1,1 -3,2 -1,0 -2,0 -3,0 -1,0 -2,0 -3,0 -7,0 -16,0 -28,1 -13,0 -22,0 -28,0 -5,-3 -8,-14 -8,-34 0,-5 0,-11 1,-19 0,-8 0,-13 0,-17l0 -13c0,-1 0,-2 0,-3 0,-2 0,-3 0,-4 0,-3 0,-8 0,-16l0 11c-1,6 -4,15 -8,27 -4,11 -6,20 -8,26l-8 37c-2,3 -7,4 -15,4 -4,0 -9,0 -15,0 -7,0 -12,0 -15,0 -1,0 -3,0 -5,0 -2,0 -4,0 -4,0 -3,0 -6,0 -7,-1 -1,-1 -2,-3 -3,-5 -9,-40 -15,-69 -19,-86l-5 -25c-1,28 -2,58 -2,90l0 25 -69 0c0,0 0,-1 0,-3 1,-2 1,-3 1,-4 -1,-18 -1,-41 -1,-69 0,-8 0,-19 0,-33 0,-13 -1,-23 -1,-28l0 -52c0,-1 1,-2 1,-3 0,0 1,-1 3,-2l13 0c5,0 9,0 11,-1 10,0 22,1 36,2 14,1 22,1 26,1l15 0zm79 89l0 -1 0 1z"/>
 </g>
</svg>
